# Blender v2.80 (sub 75) OBJ File: 'tnt.blend'
# www.blender.org
mtllib tnt.mtl
o TNT_Text
v 1.736000 0.568756 0.215063
v 1.736000 -0.018919 0.128616
v 1.638000 -0.018919 0.128616
v 1.638000 0.568756 0.215063
v 1.402000 0.568756 0.215063
v 1.402000 0.655820 0.227870
v 1.972000 0.655820 0.227870
v 1.972000 0.568756 0.215063
v 1.226000 -0.018919 0.128616
v 0.770000 0.500491 0.205021
v 0.770000 -0.018919 0.128616
v 0.678000 -0.018919 0.128616
v 0.678000 0.655820 0.227870
v 0.756000 0.655820 0.227870
v 1.218000 0.133441 0.151028
v 1.218000 0.655820 0.227870
v 1.310000 0.655820 0.227870
v 1.310000 -0.018919 0.128616
v 0.351000 0.568756 0.215063
v 0.351000 -0.018919 0.128616
v 0.253000 -0.018919 0.128616
v 0.253000 0.568756 0.215063
v 0.017000 0.568756 0.215063
v 0.017000 0.655820 0.227870
v 0.587000 0.655820 0.227870
v 0.587000 0.568756 0.215063
v 1.736000 0.606595 -0.042169
v 1.736000 0.018919 -0.128616
v 1.638000 0.018919 -0.128616
v 1.638000 0.606595 -0.042169
v 1.402000 0.606595 -0.042169
v 1.402000 0.693658 -0.029362
v 1.972000 0.693658 -0.029362
v 1.972000 0.606595 -0.042169
v 1.226000 0.018919 -0.128616
v 0.770000 0.538330 -0.052211
v 0.770000 0.018919 -0.128616
v 0.678000 0.018919 -0.128616
v 0.678000 0.693658 -0.029362
v 0.756000 0.693658 -0.029362
v 1.218000 0.171280 -0.106204
v 1.218000 0.693658 -0.029362
v 1.310000 0.693658 -0.029362
v 1.310000 0.018919 -0.128616
v 0.351000 0.606595 -0.042169
v 0.351000 0.018919 -0.128616
v 0.253000 0.018919 -0.128616
v 0.253000 0.606595 -0.042169
v 0.017000 0.606595 -0.042169
v 0.017000 0.693658 -0.029362
v 0.587000 0.693658 -0.029362
v 0.587000 0.606595 -0.042169
v 0.351000 0.606595 -0.042169
v 0.351000 0.568756 0.215063
v 0.351000 0.018919 -0.128616
v 0.351000 -0.018919 0.128616
v 0.253000 0.018919 -0.128616
v 0.253000 -0.018919 0.128616
v 0.253000 0.606595 -0.042169
v 0.253000 0.568756 0.215063
v 0.017000 0.606595 -0.042169
v 0.017000 0.568756 0.215063
v 0.017000 0.693658 -0.029362
v 0.017000 0.655820 0.227870
v 0.587000 0.693658 -0.029362
v 0.587000 0.655820 0.227870
v 0.587000 0.606595 -0.042169
v 0.587000 0.568756 0.215063
v 1.226000 0.018919 -0.128616
v 1.226000 -0.018919 0.128616
v 0.770000 0.538330 -0.052211
v 0.770000 0.500491 0.205021
v 0.770000 0.018919 -0.128616
v 0.770000 -0.018919 0.128616
v 0.678000 0.018919 -0.128616
v 0.678000 -0.018919 0.128616
v 0.678000 0.693658 -0.029362
v 0.678000 0.655820 0.227870
v 0.756000 0.693658 -0.029362
v 0.756000 0.655820 0.227870
v 1.218000 0.171280 -0.106204
v 1.218000 0.133441 0.151028
v 1.218000 0.693658 -0.029362
v 1.218000 0.655820 0.227870
v 1.310000 0.693658 -0.029362
v 1.310000 0.655820 0.227870
v 1.310000 0.018919 -0.128616
v 1.310000 -0.018919 0.128616
v 1.736000 0.606595 -0.042169
v 1.736000 0.568756 0.215063
v 1.736000 0.018919 -0.128616
v 1.736000 -0.018919 0.128616
v 1.638000 0.018919 -0.128616
v 1.638000 -0.018919 0.128616
v 1.638000 0.606595 -0.042169
v 1.638000 0.568756 0.215063
v 1.402000 0.606595 -0.042169
v 1.402000 0.568756 0.215063
v 1.402000 0.693658 -0.029362
v 1.402000 0.655820 0.227870
v 1.972000 0.693658 -0.029362
v 1.972000 0.655820 0.227870
v 1.972000 0.606595 -0.042169
v 1.972000 0.568756 0.215063
vn 0.0000 -0.1455 0.9894
vn 0.0000 0.0000 1.0000
vn 0.0000 0.1455 -0.9894
vn 0.0000 0.0000 -1.0000
vn 0.7071 -0.6996 -0.1029
vn -0.7071 -0.6996 -0.1029
vn -0.7071 0.6996 0.1029
vn 0.7071 0.6996 0.1029
vn -0.4149 -0.9002 -0.1324
vn 0.3500 -0.9268 -0.1363
vn 0.4132 0.9009 0.1325
vn -0.3517 0.9261 0.1362
usemtl None
s off
f 5//1 7//1 6//1
f 5//1 8//1 7//1
f 4//2 8//2 5//2
f 3//1 1//1 4//1
f 1//2 8//2 4//2
f 3//1 2//1 1//1
f 12//1 14//1 13//1
f 12//1 10//1 14//1
f 10//1 15//1 14//1
f 15//1 17//1 16//1
f 15//1 18//1 17//1
f 12//1 11//1 10//1
f 9//1 15//1 10//1
f 9//1 18//1 15//1
f 23//1 25//1 24//1
f 23//1 26//1 25//1
f 22//2 26//2 23//2
f 21//1 19//1 22//1
f 19//2 26//2 22//2
f 21//1 20//1 19//1
f 33//3 31//3 32//3
f 34//3 31//3 33//3
f 34//2 30//2 31//2
f 27//3 29//3 30//3
f 34//2 27//2 30//2
f 28//3 29//3 27//3
f 40//3 38//3 39//3
f 36//3 38//3 40//3
f 41//3 36//3 40//3
f 43//3 41//3 42//3
f 44//3 41//3 43//3
f 37//3 38//3 36//3
f 41//3 35//3 36//3
f 44//3 35//3 41//3
f 51//3 49//3 50//3
f 52//3 49//3 51//3
f 52//2 48//2 49//2
f 45//3 47//3 48//3
f 52//4 45//4 48//4
f 46//3 47//3 45//3
s 1
f 54//5 56//5 55//5 53//5
f 56//5 58//6 57//6 55//5
f 58//6 60//6 59//6 57//6
f 60//6 62//6 61//6 59//6
f 62//6 64//7 63//7 61//6
f 64//7 66//8 65//8 63//7
f 66//8 68//5 67//5 65//8
f 68//5 54//5 53//5 67//5
f 70//9 72//10 71//10 69//9
f 72//10 74//5 73//5 71//10
f 74//5 76//6 75//6 73//5
f 76//6 78//7 77//7 75//6
f 78//7 80//11 79//11 77//7
f 80//11 82//12 81//12 79//11
f 82//12 84//7 83//7 81//12
f 84//7 86//8 85//8 83//7
f 86//8 88//5 87//5 85//8
f 88//5 70//9 69//9 87//5
f 90//5 92//5 91//5 89//5
f 92//5 94//6 93//6 91//5
f 94//6 96//6 95//6 93//6
f 96//6 98//6 97//6 95//6
f 98//6 100//7 99//7 97//6
f 100//7 102//8 101//8 99//7
f 102//8 104//5 103//5 101//8
f 104//5 90//5 89//5 103//5
